# xmcd
#
# Track frame offsets: 
#        150
#        38892
#        67410
#        81512
#        94745
#        105405
#        121870
#        134445
#        147045
#        169900
#        182205
#        200125
#
# Disc length: 2930 seconds
#
# Revision: 1
# Processed by: cddbd v1.5.2PL0 Copyright (c) Steve Scherf et al.
# Submitted via: ExactAudioCopy v0.90b4
#
DISCID=b40b700c
DTITLE=Various Artist - Generations Of Blues Vol 3 - Guitar Greats
DYEAR=1998
DGENRE=Blues
TTITLE0=B.B. King - Why I Sing the Blues
TTITLE1=Buddy Guy - A Man and the Blues
TTITLE2=John Lee Hooker - Hobo Blues
TTITLE3=Mississippi John Hurt - Candy Man
TTITLE4=Mance Lipscomb - God Moves on the Water (The Sinking of the Ti
TTITLE4=tantic)
TTITLE5=Reverend Gary Davis - Samson and Delilah
TTITLE6=Muddy Waters - Hoochie Coochie Man
TTITLE7=Lightnin' Hopkins - Baby Please Don't Go
TTITLE8=Tab Benoit - Ain't Gonna Do It
TTITLE9=Jimmy Reed - Boogie in the Dark
TTITLE10=Robert Cray - Don't You Even Care
TTITLE11=The Jeff Healey Band - Angel Eyes
EXTD=Vanguard
EXTT0=B.B. King
EXTT1=Buddy Guy
EXTT2=John Lee Hooker
EXTT3=Mississippi John Hurt
EXTT4=Mance Lipscomb
EXTT5=Rev. Gary Davis
EXTT6=Muddy Waters
EXTT7=Lightnin' Hopkins
EXTT8=Tab Benoit
EXTT9=Jimmy Reed
EXTT10=Robert Cray
EXTT11=The Jeff Healey Band
PLAYORDER=
